<?xml version="1.0" encoding="UTF-8"?>
<svg xmlns="http://www.w3.org/2000/svg" width="1600" height="520" viewBox="0 0 1600 520">
  <defs>
    <linearGradient id="bg" x1="0" y1="0" x2="1" y2="1">
      <stop offset="0" stop-color="#e2e8f0" stop-opacity="0.65"/>
      <stop offset="1" stop-color="#ffffff" stop-opacity="0.0"/>
    </linearGradient>
    <radialGradient id="blob1" cx="30%" cy="20%" r="60%">
      <stop offset="0" stop-color="#10b981" stop-opacity="0.35"/>
      <stop offset="1" stop-color="#10b981" stop-opacity="0"/>
    </radialGradient>
    <radialGradient id="blob2" cx="75%" cy="35%" r="55%">
      <stop offset="0" stop-color="#0ea5e9" stop-opacity="0.30"/>
      <stop offset="1" stop-color="#0ea5e9" stop-opacity="0"/>
    </radialGradient>
    <pattern id="dots" width="28" height="28" patternUnits="userSpaceOnUse">
      <circle cx="3" cy="3" r="1.2" fill="#94a3b8" fill-opacity="0.35"/>
    </pattern>
  </defs>

  <rect width="1600" height="520" fill="url(#bg)"/>
  <rect width="1600" height="520" fill="url(#dots)" opacity="0.35"/>

  <circle cx="180" cy="120" r="240" fill="url(#blob1)"/>
  <circle cx="1200" cy="120" r="270" fill="url(#blob2)"/>

  <path d="M-40 420 C 240 360, 420 480, 760 420 S 1280 360, 1640 430" fill="none" stroke="#0ea5e9" stroke-opacity="0.18" stroke-width="6"/>
  <path d="M-60 470 C 220 410, 430 520, 780 465 S 1310 395, 1660 475" fill="none" stroke="#10b981" stroke-opacity="0.16" stroke-width="6"/>

  <g opacity="0.26">
    <rect x="1060" y="280" width="180" height="140" rx="22" fill="#ffffff"/>
    <rect x="1080" y="300" width="140" height="12" rx="6" fill="#cbd5e1"/>
    <rect x="1080" y="322" width="110" height="12" rx="6" fill="#cbd5e1"/>
    <rect x="1080" y="352" width="120" height="12" rx="6" fill="#cbd5e1"/>
    <rect x="1080" y="374" width="90" height="12" rx="6" fill="#cbd5e1"/>
  </g>
</svg>
